<svg id="visual" viewBox="0 0 960 540" width="960" height="540" xmlns="http://www.w3.org/2000/svg" xmlns:xlink="http://www.w3.org/1999/xlink" version="1.1"><rect x="0" y="0" width="960" height="540" fill="#0a263b"></rect><defs><linearGradient id="grad1_0" x1="43.8%" y1="0%" x2="100%" y2="100%"><stop offset="14.444444444444446%" stop-color="#fa3c6a" stop-opacity="1"></stop><stop offset="85.55555555555554%" stop-color="#fa3c6a" stop-opacity="1"></stop></linearGradient></defs><defs><linearGradient id="grad1_1" x1="43.8%" y1="0%" x2="100%" y2="100%"><stop offset="14.444444444444446%" stop-color="#fa3c6a" stop-opacity="1"></stop><stop offset="85.55555555555554%" stop-color="#a43c88" stop-opacity="1"></stop></linearGradient></defs><defs><linearGradient id="grad1_2" x1="43.8%" y1="0%" x2="100%" y2="100%"><stop offset="14.444444444444446%" stop-color="#433b73" stop-opacity="1"></stop><stop offset="85.55555555555554%" stop-color="#a43c88" stop-opacity="1"></stop></linearGradient></defs><defs><linearGradient id="grad1_3" x1="43.8%" y1="0%" x2="100%" y2="100%"><stop offset="14.444444444444446%" stop-color="#433b73" stop-opacity="1"></stop><stop offset="85.55555555555554%" stop-color="#0a263b" stop-opacity="1"></stop></linearGradient></defs><defs><linearGradient id="grad2_0" x1="0%" y1="0%" x2="56.3%" y2="100%"><stop offset="14.444444444444446%" stop-color="#fa3c6a" stop-opacity="1"></stop><stop offset="85.55555555555554%" stop-color="#fa3c6a" stop-opacity="1"></stop></linearGradient></defs><defs><linearGradient id="grad2_1" x1="0%" y1="0%" x2="56.3%" y2="100%"><stop offset="14.444444444444446%" stop-color="#a43c88" stop-opacity="1"></stop><stop offset="85.55555555555554%" stop-color="#fa3c6a" stop-opacity="1"></stop></linearGradient></defs><defs><linearGradient id="grad2_2" x1="0%" y1="0%" x2="56.3%" y2="100%"><stop offset="14.444444444444446%" stop-color="#a43c88" stop-opacity="1"></stop><stop offset="85.55555555555554%" stop-color="#433b73" stop-opacity="1"></stop></linearGradient></defs><defs><linearGradient id="grad2_3" x1="0%" y1="0%" x2="56.3%" y2="100%"><stop offset="14.444444444444446%" stop-color="#0a263b" stop-opacity="1"></stop><stop offset="85.55555555555554%" stop-color="#433b73" stop-opacity="1"></stop></linearGradient></defs><g transform="translate(960, 0)"><path d="M0 486C-51.5 416.1 -103 346.1 -181.5 314.4C-260 282.6 -365.6 289 -420.9 243C-476.1 197 -481.1 98.5 -486 0L0 0Z" fill="#1d3359"></path><path d="M0 364.5C-38.6 312 -77.2 259.6 -136.1 235.8C-195 212 -274.2 216.8 -315.7 182.3C-357.1 147.7 -360.8 73.9 -364.5 0L0 0Z" fill="#723e84"></path><path d="M0 243C-25.7 208 -51.5 173.1 -90.7 157.2C-130 141.3 -182.8 144.5 -210.4 121.5C-238.1 98.5 -240.5 49.2 -243 0L0 0Z" fill="#d3377f"></path><path d="M0 121.5C-12.9 104 -25.7 86.5 -45.4 78.6C-65 70.7 -91.4 72.3 -105.2 60.8C-119 49.2 -120.3 24.6 -121.5 0L0 0Z" fill="#fa3c6a"></path></g><g transform="translate(0, 540)"><path d="M0 -486C52.5 -417.9 105.1 -349.8 183.5 -317.8C261.9 -285.8 366.2 -290 420.9 -243C475.6 -196 480.8 -98 486 0L0 0Z" fill="#1d3359"></path><path d="M0 -364.5C39.4 -313.4 78.8 -262.4 137.6 -238.4C196.4 -214.4 274.6 -217.5 315.7 -182.3C356.7 -147 360.6 -73.5 364.5 0L0 0Z" fill="#723e84"></path><path d="M0 -243C26.3 -209 52.5 -174.9 91.7 -158.9C131 -142.9 183.1 -145 210.4 -121.5C237.8 -98 240.4 -49 243 0L0 0Z" fill="#d3377f"></path><path d="M0 -121.5C13.1 -104.5 26.3 -87.5 45.9 -79.5C65.5 -71.5 91.5 -72.5 105.2 -60.8C118.9 -49 120.2 -24.5 121.5 0L0 0Z" fill="#fa3c6a"></path></g></svg>