<svg xmlns="http://www.w3.org/2000/svg" version="1.1" xmlns:xlink="http://www.w3.org/1999/xlink" xmlns:svgjs="http://svgjs.com/svgjs" width="1920" height="1080" preserveAspectRatio="none" viewBox="0 0 1920 1080"><g clip-path="url(&quot;#SvgjsClipPath1362&quot;)" fill="none"><rect width="1920" height="1080" x="0" y="0" fill="url(#SvgjsLinearGradient1363)"></rect><circle r="180" cx="30.95" cy="-28.96" stroke="#ffffff" stroke-opacity="1" stroke-width="2"></circle><circle r="180" cx="637.01" cy="849.16" stroke="#ffffff" stroke-opacity="1" stroke-width="2"></circle><circle r="301.405" cx="282.01" cy="164.2" stroke="#ffffff" stroke-opacity="1" stroke-width="2"></circle><circle r="131.705" cx="25.16" cy="486.33" stroke="#ffffff" stroke-opacity="1" stroke-width="2"></circle><circle r="295.75" cx="1215.21" cy="640.35" stroke="#ffffff" stroke-opacity="1" stroke-width="2"></circle><circle r="306.54" cx="420.88" cy="780.46" stroke="#ffffff" stroke-opacity="1" stroke-width="2"></circle><circle r="337.575" cx="534.38" cy="328.79" stroke="#ffffff" stroke-opacity="1" stroke-width="2"></circle><circle r="294.695" cx="1524.92" cy="460.38" stroke="#ffffff" stroke-opacity="1" stroke-width="2"></circle><circle r="141.46" cx="1426.94" cy="32.71" stroke="#ffffff" stroke-opacity="1" stroke-width="2"></circle><circle r="343.945" cx="1081.96" cy="262.49" stroke="#ffffff" stroke-opacity="1" stroke-width="2"></circle><circle r="210.525" cx="573.11" cy="1016.75" stroke="#ffffff" stroke-opacity="1" stroke-width="2"></circle><circle r="108.135" cx="560.3" cy="808.64" stroke="#ffffff" stroke-opacity="1" stroke-width="2"></circle><circle r="136.89" cx="1275.25" cy="618.84" stroke="#ffffff" stroke-opacity="1" stroke-width="2"></circle><circle r="269.03" cx="1777.87" cy="604.84" stroke="#ffffff" stroke-opacity="1" stroke-width="2"></circle><circle r="217.48" cx="1295.35" cy="312.62" stroke="#ffffff" stroke-opacity="1" stroke-width="2"></circle><circle r="216.195" cx="42.45" cy="962.07" stroke="#ffffff" stroke-opacity="1" stroke-width="2"></circle><circle r="143.72" cx="866.23" cy="729.35" stroke="#ffffff" stroke-opacity="1" stroke-width="2"></circle><circle r="91.05" cx="1177.01" cy="238.91" stroke="#ffffff" stroke-opacity="1" stroke-width="2"></circle></g><defs><clipPath id="SvgjsClipPath1362"><rect width="1920" height="1080" x="0" y="0"></rect></clipPath><linearGradient x1="10.94%" y1="-19.44%" x2="89.06%" y2="119.44%" gradientUnits="userSpaceOnUse" id="SvgjsLinearGradient1363"><stop stop-color="#0e2a47" offset="0"></stop><stop stop-color="rgba(0, 51, 158, 1)" offset="1"></stop></linearGradient></defs></svg>